<svg width="88" height="88" viewBox="0 0 88 88" fill="none" xmlns="http://www.w3.org/2000/svg">
<circle cx="50" cy="86" r="2" fill="#7960FE" fill-opacity="0.2"/>
<circle cx="50" cy="38" r="2" fill="#7960FE" fill-opacity="0.2"/>
<circle cx="2" cy="86" r="2" fill="#7960FE" fill-opacity="0.2"/>
<circle cx="2" cy="38" r="2" fill="#7960FE" fill-opacity="0.2"/>
<circle cx="50" cy="62" r="2" fill="#7960FE" fill-opacity="0.2"/>
<circle cx="50" cy="14" r="2" fill="#7960FE" fill-opacity="0.2"/>
<circle cx="2" cy="62" r="2" fill="#7960FE" fill-opacity="0.2"/>
<circle cx="2" cy="14" r="2" fill="#7960FE" fill-opacity="0.2"/>
<circle cx="50" cy="50" r="2" fill="#7960FE" fill-opacity="0.2"/>
<circle cx="50" cy="2" r="2" fill="#7960FE" fill-opacity="0.2"/>
<circle cx="2" cy="50" r="2" fill="#7960FE" fill-opacity="0.2"/>
<circle cx="2" cy="2" r="2" fill="#7960FE" fill-opacity="0.2"/>
<circle cx="50" cy="74" r="2" fill="#7960FE" fill-opacity="0.2"/>
<circle cx="50" cy="26" r="2" fill="#7960FE" fill-opacity="0.2"/>
<circle cx="2" cy="74" r="2" fill="#7960FE" fill-opacity="0.2"/>
<circle cx="2" cy="26" r="2" fill="#7960FE" fill-opacity="0.2"/>
<circle cx="62" cy="86" r="2" fill="#7960FE" fill-opacity="0.2"/>
<circle cx="62" cy="38" r="2" fill="#7960FE" fill-opacity="0.2"/>
<circle cx="14" cy="86" r="2" fill="#7960FE" fill-opacity="0.2"/>
<circle cx="14" cy="38" r="2" fill="#7960FE" fill-opacity="0.2"/>
<circle cx="62" cy="62" r="2" fill="#7960FE" fill-opacity="0.2"/>
<circle cx="62" cy="14" r="2" fill="#7960FE" fill-opacity="0.2"/>
<circle cx="14" cy="62" r="2" fill="#7960FE" fill-opacity="0.2"/>
<circle cx="14" cy="14" r="2" fill="#7960FE" fill-opacity="0.2"/>
<circle cx="62" cy="50" r="2" fill="#7960FE" fill-opacity="0.2"/>
<circle cx="62" cy="2" r="2" fill="#7960FE" fill-opacity="0.2"/>
<circle cx="14" cy="50" r="2" fill="#7960FE" fill-opacity="0.2"/>
<circle cx="14" cy="2" r="2" fill="#7960FE" fill-opacity="0.2"/>
<circle cx="62" cy="74" r="2" fill="#7960FE" fill-opacity="0.2"/>
<circle cx="62" cy="26" r="2" fill="#7960FE" fill-opacity="0.2"/>
<circle cx="14" cy="74" r="2" fill="#7960FE" fill-opacity="0.2"/>
<circle cx="14" cy="26" r="2" fill="#7960FE" fill-opacity="0.2"/>
<circle cx="74" cy="86" r="2" fill="#7960FE" fill-opacity="0.2"/>
<circle cx="74" cy="38" r="2" fill="#7960FE" fill-opacity="0.2"/>
<circle cx="26" cy="86" r="2" fill="#7960FE" fill-opacity="0.2"/>
<circle cx="26" cy="38" r="2" fill="#7960FE" fill-opacity="0.2"/>
<circle cx="74" cy="62" r="2" fill="#7960FE" fill-opacity="0.2"/>
<circle cx="74" cy="14" r="2" fill="#7960FE" fill-opacity="0.2"/>
<circle cx="26" cy="62" r="2" fill="#7960FE" fill-opacity="0.2"/>
<circle cx="26" cy="14" r="2" fill="#7960FE" fill-opacity="0.2"/>
<circle cx="74" cy="50" r="2" fill="#7960FE" fill-opacity="0.2"/>
<circle cx="74" cy="2" r="2" fill="#7960FE" fill-opacity="0.2"/>
<circle cx="26" cy="50" r="2" fill="#7960FE" fill-opacity="0.2"/>
<circle cx="26" cy="2" r="2" fill="#7960FE" fill-opacity="0.2"/>
<circle cx="74" cy="74" r="2" fill="#7960FE" fill-opacity="0.2"/>
<circle cx="74" cy="26" r="2" fill="#7960FE" fill-opacity="0.2"/>
<circle cx="26" cy="74" r="2" fill="#7960FE" fill-opacity="0.2"/>
<circle cx="26" cy="26" r="2" fill="#7960FE" fill-opacity="0.2"/>
<circle cx="86" cy="86" r="2" fill="#7960FE" fill-opacity="0.2"/>
<circle cx="86" cy="38" r="2" fill="#7960FE" fill-opacity="0.2"/>
<circle cx="38" cy="86" r="2" fill="#7960FE" fill-opacity="0.2"/>
<circle cx="38" cy="38" r="2" fill="#7960FE" fill-opacity="0.2"/>
<circle cx="86" cy="62" r="2" fill="#7960FE" fill-opacity="0.2"/>
<circle cx="86" cy="14" r="2" fill="#7960FE" fill-opacity="0.2"/>
<circle cx="38" cy="62" r="2" fill="#7960FE" fill-opacity="0.2"/>
<circle cx="38" cy="14" r="2" fill="#7960FE" fill-opacity="0.2"/>
<circle cx="86" cy="50" r="2" fill="#7960FE" fill-opacity="0.2"/>
<circle cx="86" cy="2" r="2" fill="#7960FE" fill-opacity="0.2"/>
<circle cx="38" cy="50" r="2" fill="#7960FE" fill-opacity="0.2"/>
<circle cx="38" cy="2" r="2" fill="#7960FE" fill-opacity="0.2"/>
<circle cx="86" cy="74" r="2" fill="#7960FE" fill-opacity="0.2"/>
<circle cx="86" cy="26" r="2" fill="#7960FE" fill-opacity="0.2"/>
<circle cx="38" cy="74" r="2" fill="#7960FE" fill-opacity="0.2"/>
<circle cx="38" cy="26" r="2" fill="#7960FE" fill-opacity="0.2"/>
</svg>
